# ProBuilder 4.5.2
# https://unity3d.com/unity/features/worldbuilding/probuilder
# 5/1/2024 5:33:12 PM

mtllib ./Cube.mtl
o Cube

g Cube
v -49.25576 0 0
v -49.88132 0 0
v -50.48378 1 0
v -49.25576 1 0
v -50 0 -20
v -49.25576 0 -20
v -49.25576 -0.127512 -19.89902
v -50 1 -20
v 0.1058393 4.706542 0
v 0.6815414 -3.391728 0
v -0.6804328 0.09328318 0
v -0.754765 8.191554 0
v -2.134651 7.374089 -19.8742
v -1.060666 7.41029 -20
v 1.183845 -2.852244 -19.89902
v 1.126514 -1.760933 -20
v -1.035779 7.906439 -19.43856
v -49.25576 7.906439 -19.43856
v -49.25576 6.906439 -20.36651
v -1.035779 6.906439 -20.36651
v -49.88132 0 -10
v -50.48378 1.089425 -9.089739
v -2.028812 13.84156 -9.874201
v -1.815431 16.36278 -10
v -50 8.045103 -20
v -49.25576 8.045103 -20
v -49.27237 8.045103 -0.7688017
v -49.88132 8.045103 -9.089739
v -49.27237 7.071045 -0.7688017
v -49.25576 6.981621 0
v -50.48378 6.981621 0
v -50.48378 7.071045 -9.089739
v -49.25576 0 -10
v 1.403903 -1.998029 -2.506031
v -49.27237 -0.03808689 -1.59577
v -1.171065 8.150526 -1.679063
v -1.035779 8.150526 0
v -49.25576 8.150526 0
v -49.27237 8.150526 -0.7688017
v 2.843835 -3.391728 -10
v -48.77249 1.089425 -0.7796012
v -48.75588 1 -0.01079948
v -48.77249 7.071045 -0.7796012
v -48.75588 6.981621 -0.01079948
v -49.25576 1 0.5
v -50.48378 1 0.5
v -49.25576 6.981621 0.5
v -50.48378 6.981621 0.5
v -50 5.233689 -20
v -49.25576 5.233689 -20
v -49.27237 5.233689 -0.7688017
v -49.88132 5.233689 -9.089739

vt -49.25576 0
vt -49.88132 0
vt -50.48378 1
vt -49.25576 1
vt -36.61974 10.99547
vt -35.94718 10.90672
vt -35.99042 10.75884
vt -36.61974 11.95591
vt 0.1058393 4.706542
vt 0.6815414 -3.391728
vt -0.6804328 0.09328318
vt -0.754765 8.191554
vt 6.581303 12.33838
vt 7.60571 12.27674
vt 9.590787 2.127103
vt 9.582219 3.207493
vt 1.035779 -7.426634
vt 49.25576 -7.426634
vt 49.25576 -8.790851
vt 1.035779 -8.790851
vt -0.3156921 12.4651
vt -10.31549 12.44929
vt -9.409061 13.65613
vt -0.3195049 13.58392
vt -20.31604 12.46313
vt -20.31604 13.4314
vt 19.47608 7.718865
vt 9.560568 14.05744
vt 9.710991 16.55393
vt 19.72947 7.668511
vt 0.01266205 4.681967
vt -0.09029615 8.22543
vt 50 -20
vt 49.25576 -20
vt 49.27237 -0.7688017
vt 49.88132 -9.089739
vt 31.09578 -4.617725
vt 31.14485 -3.845119
vt 32.04043 -3.928401
vt 31.97925 -12.97984
vt -44.86879 -19.50225
vt -44.76229 -9.505918
vt -44.20093 -9.512082
vt -44.20093 -19.50959
vt -44.76229 0.491589
vt -44.20093 0.485424
vt -20.19541 -14.76754
vt -19.89153 -2.33399
vt -2.497528 -1.484246
vt -1.892588 -14.71999
vt 1.171065 -1.679063
vt 1.035779 0
vt 49.25576 0
vt -20.00603 6.793205
vt -10.01076 15.09581
vt -0.004547169 7.594219
vt -0.004099346 -0.1137723
vt 1.05533 -10.09351
vt 0.2338651 -20.04141
vt -0.8850592 -0.07469311
vt 4.28722 -9.574334
vt 1.338358 -19.70041
vt 2.17182 0.09328458
vt 49.24508 -0.2677812
vt -1.438987 -2.23769
vt 49.2567 7.962475
vt 1.14735 7.938955
vt 2.864109 -1.935109
vt -0.3768707 0.1848629
vt 0.7493771 8.352525
vt -0.573686 8.181664
vt -0.5126392 1
vt -2.108495 -0.03808689
vt -0.5126392 8.150526
vt -1.281572 8.150526
vt -1.035779 8.150526
vt -49.25576 8.150526
vt 17.02942 1.089425
vt 9.438173 -0.03808689
vt 17.02942 7.071045
vt 8.621802 7.071045
vt 1.832854 1.089425
vt 1.063873 1
vt 1.832854 7.071045
vt 1.063873 6.981621
vt 0 1
vt -9.089739 1.089425
vt 0 6.981621
vt -9.089739 7.071045
vt -49.25576 6.981621
vt -50.48378 6.981621
vt 52.235 1
vt 51.48394 -0.127512
vt 52.235 5.233689
vt 51.49752 5.233689
vt 19.85432 -0.1266699
vt 1.551061 -0.03724479
vt 19.9553 5.234531
vt 0.7240936 5.234531
vt -6.784038 -6.228962
vt -17.70501 -6.319324
vt -6.811441 -2.041226
vt -17.70501 -2.129583
vt -9.262254 1.146403
vt -16.85345 2.274252
vt -8.445409 6.419757
vt -16.75948 6.402719
vt 50 5.233689
vt 49.25576 5.233689
vt 50 8.045103
vt 49.25576 8.045103
vt 19.95745 5.233689
vt 0.7262469 5.233689
vt 19.95745 8.045103
vt 0.7262469 8.045103
vt -9.631765 5.233689
vt -20.54267 5.233689
vt -9.631765 8.045103
vt -20.54267 8.045103
vt -4.363036 5.233689
vt -12.70623 5.233689
vt -4.363036 8.045103
vt -12.70623 8.045103
vt -21.50505 -26.16655
vt -22.90998 -24.88181
vt -21.99506 -24.77113
vt -22.66791 -24.62405
vt 49.24427 6.811977
vt 49.22641 -0.3450701
vt 48.74427 6.811977
vt 48.74427 0.8704013
vt -49.24427 1
vt -49.24427 6.981621
vt -48.74427 1
vt -48.74427 6.981621
vt 49.27314 -0.7919781
vt 49.28997 -1.565958
vt 48.77326 -0.8028503
vt 48.79009 -1.576831
vt -50.48378 0
vt -49.25576 0.5
vt -50.48378 0.5
vt -0.5 6.981621
vt -0.5 1
vt 0.5 1
vt 0.5 6.981621
vt 50.48378 0
vt 50.48378 0.5
vt 49.25576 0.5
vt 6.035554 0.1986137
vt 6.066144 -0.8984317
vt 4.030971 8.911525
vt 3.801582 9.814488
vt 1.137317 -3.710135
vt -49.30215 -0.9828521
vt -1.081224 7.05862
vt -49.30107 7.063495
vt -19.89902 -0.127512
vt -20 0
vt -19.43856 7.906439
vt -20.36651 6.906439
vt 49.21858 1.06471
vt -1.163609 -0.6987003
vt 49.2179 7.980868
vt 0.9980013 7.976128

vn 0 0 1
vn 0 0 -1
vn 0.320282 0.2383666 -0.1990004
vn 0.640564 0.4767332 0.6019993
vn -0.1063661 -0.03458157 0.0268791
vn 0.1151064 0.03494295 0.9927384
vn -0.3278387 -0.1041061 -0.9389802
vn 0 0.6802057 -0.7330213
vn -0.8658283 -0.4999849 -0.002538367
vn -0.8751039 -0.4839351 0
vn -0.8565527 -0.5160346 -0.005076735
vn -0.9433814 -0.2303602 -0.01184005
vn -0.9999296 0 0.01186707
vn -0.8868333 -0.4607203 -0.03554718
vn 0.09146488 -0.8366107 0.540108
vn 0.5391274 -0.4564992 0.3414867
vn 0.9867899 -0.07638776 0.1428655
vn 0.9511631 -0.09515338 -0.2936572
vn 0.9589174 0.07178041 -0.100565
vn 0.9666718 0.2387142 0.09252707
vn 0 1 0
vn -0.6808358 0.7256982 0.09911973
vn -0.3404179 0.8628249 0.05447862
vn 0 0.9999517 0.009837498
vn 0 -1 0
vn 0.04621697 0.9982783 -0.02725466
vn 0.0538745 0.997312 -0.04966225
vn 0.03855945 0.9992446 -0.004847067
vn -0.9783685 -0.1878277 0.06815986
vn -0.9705776 -0.2111352 0.1157627
vn -0.9861595 -0.1645202 0.02055704
vn -0.9794661 -0.1940532 -0.05467654
vn -0.8755865 -0.1005683 -0.3453078
vn -0.7717069 -0.007083327 -0.635939
vn -0.04973543 -0.9925932 -0.07754109
vn -0.06496334 -0.9978877 0
vn -0.03450751 -0.9872987 -0.1550822
vn -0.06636027 -0.9977453 -0.007022797
vn -0.06776361 -0.9977014 0
vn -0.06495693 -0.9977892 -0.01404559
vn 0.936056 0.3006856 -0.1716293
vn 0.9551105 0.2709286 -0.1198401
vn 0.9170016 0.3304426 -0.2234184
vn 0.9682567 0.1704236 0.1270946
vn 0.9750606 0.0693166 0.2108367
vn 0.9614529 0.2715306 0.04335253
vn -0.01398391 0.1004691 -0.9948419
vn -0.01642449 0.08845791 -0.9958686
vn -0.01886508 0.07644671 -0.9968952
vn 0.8213477 0.163876 0.5463814
vn 0.9085779 0.1038969 0.2330733
vn 0.995808 0.04391783 -0.08023476
vn -0.9999458 0 0.0104077
vn -0.999855 -0.001090637 0.0160033
vn -0.9997643 -0.002181274 0.02159891
vn 0.9871851 0 -0.1595794
vn 0.9883071 0.008378082 -0.1518129
vn 0.9894291 0.01675616 -0.1440464
vn 0.9997668 0 -0.02159896
vn -1 0 0
vn 0.1344486 0 -0.9909205
vn 0.06722432 -0.009415888 -0.9953716
vn 0 -0.01883178 -0.9998227
vn 0.9999996 1.709025E-05 0.000907361
vn -0.9885952 0.1437129 -0.0450136
vn -0.9942681 0.07185644 -0.01706825
vn -0.9999409 0 0.0108771
vn -0.987463 -0.02446244 0.1559438
vn -0.9872381 0.05951024 0.1140882
vn -0.9870132 0.1434829 0.07223264
vn -0.9973329 0 0.07298786
vn 0.7152876 -0.589169 0.3758238
vn 0.3563963 -0.7912376 0.1301697
vn -0.002494933 -0.9933062 -0.1154844
vn -0.02145441 0.1155191 -0.9930735
vn 0.415655 0.05775953 -0.7576846
vn 0.8527645 0 -0.5222957
vn 0.02159903 0 0.9997668
vn 0.002494933 0.9933062 0.1154844
vn 1 0 0
vn 0.2459081 0.1021078 0.9639
vn 0.599446 0.1541122 0.3708896
vn 0.9529839 0.2061165 -0.2221208
vn -0.002335833 -0.04324038 0.9990619
vn -0.001167916 -0.05023018 0.9987118
vn 0 -0.05721997 0.9983616
vn -0.001852201 -0.05299354 -0.9985932
vn -0.0009261003 -0.04762112 -0.9988501
vn 0 -0.04224868 -0.9991071

usemtl ProBuilderDefault
f 4/4/1 3/3/1 2/2/1 1/1/1
f 5/5/2 8/8/3 7/7/4 6/6/3
f 12/12/1 11/11/1 10/10/1 9/9/1
f 11/11/1 4/4/1 1/1/1 10/10/1
f 16/16/7 15/15/5 14/14/6 13/13/5
f 19/19/8 18/18/8 17/17/8 20/20/8
f 3/24/11 22/23/9 21/22/10 2/21/9
f 22/23/14 8/26/12 5/25/13 21/22/12
f 13/27/15 14/30/16 24/29/17 23/28/16
f 23/28/18 24/29/19 12/32/20 9/31/19
f 28/36/21 27/35/21 26/34/21 25/33/21
f 31/39/24 30/38/23 29/37/22 32/40/23
f 6/44/25 33/43/25 21/42/25 5/41/25
f 33/43/25 1/46/25 2/45/25 21/42/25
f 35/50/28 34/49/26 15/48/27 7/47/26
f 38/53/21 37/52/21 36/51/21 39/35/21
f 34/49/31 24/55/29 14/54/30 15/48/29
f 11/57/34 12/56/33 24/55/32 34/49/33
f 16/59/37 40/58/35 33/43/36 6/44/35
f 40/58/40 10/60/38 1/46/39 33/43/38
f 13/62/43 23/61/41 40/58/42 16/59/41
f 23/61/46 9/63/44 10/60/45 40/58/44
f 39/66/48 36/67/49 34/65/48 35/64/47
f 36/70/51 37/71/52 11/69/51 34/68/50
f 38/74/54 39/75/55 35/73/54 4/72/53
f 37/76/1 38/77/1 4/4/1 11/11/1
f 32/80/57 29/81/58 35/79/57 22/78/56
f 43/84/59 44/85/59 42/83/59 41/82/59
f 31/88/60 32/89/60 22/87/60 3/86/60
f 47/90/1 48/91/1 46/3/1 45/4/1
f 49/94/62 50/95/63 7/93/62 8/92/61
f 50/98/64 51/99/64 35/97/64 7/96/64
f 52/102/66 49/103/67 8/101/66 22/100/65
f 51/106/69 52/107/70 22/105/69 35/104/68
f 25/110/2 26/111/2 50/109/2 49/108/2
f 26/114/64 27/115/64 51/113/64 50/112/64
f 28/118/67 25/119/67 49/117/67 52/116/67
f 27/122/71 28/123/71 52/121/71 51/120/71
f 41/126/73 42/127/74 4/125/73 35/124/72
f 43/130/76 41/131/77 35/129/76 29/128/75
f 42/134/78 44/135/78 30/133/78 4/132/78
f 44/138/79 43/139/79 29/137/79 30/136/79
f 45/141/25 46/142/25 3/140/25 4/1/25
f 47/143/80 45/144/80 4/86/80 30/88/80
f 46/145/60 48/146/60 31/88/60 3/86/60
f 48/148/21 47/149/21 30/53/21 31/147/21
f 20/152/82 17/153/83 15/151/82 16/150/81
f 17/156/85 18/157/86 7/155/85 15/154/84
f 18/160/60 19/161/60 6/159/60 7/158/60
f 19/164/88 20/165/89 16/163/88 6/162/87

